<svg xmlns="http://www.w3.org/2000/svg" xmlns:xlink="http://www.w3.org/1999/xlink" width="1024" zoomAndPan="magnify" viewBox="0 0 768 767.999994" height="1024" preserveAspectRatio="xMidYMid meet" version="1.0"><defs><g/><clipPath id="4ec5a4da57"><path d="M 686 348 L 730 348 L 730 377.734375 L 686 377.734375 Z M 686 348 " clip-rule="nonzero"/></clipPath></defs><g fill="#dd4646" fill-opacity="1"><g transform="translate(52.548181, 442.862713)"><g><path d="M 7.0625 -2.65625 L 17.65625 -5.296875 L 17.65625 -118.3125 L 7.0625 -120.96875 L 7.0625 -123.609375 L 30.015625 -123.609375 C 40.617188 -123.609375 45.921875 -118.3125 45.921875 -107.71875 L 45.921875 -79.46875 C 47.679688 -81.820312 49.503906 -83.707031 51.390625 -85.125 C 56.453125 -89.007812 62.28125 -90.953125 68.875 -90.953125 C 75.46875 -90.953125 81.382812 -89.566406 86.625 -86.796875 C 91.863281 -84.023438 95.953125 -80.398438 98.890625 -75.921875 C 101.835938 -71.453125 103.3125 -66.75 103.3125 -61.8125 L 103.3125 -5.296875 L 113.90625 -2.65625 L 113.90625 0 L 90.953125 0 C 80.347656 0 75.046875 -5.296875 75.046875 -15.890625 L 75.046875 -61.8125 C 75.046875 -69.226562 73.722656 -74.90625 71.078125 -78.84375 C 68.429688 -82.789062 65.34375 -84.765625 61.8125 -84.765625 C 57.332031 -84.765625 53.328125 -82.410156 49.796875 -77.703125 C 48.265625 -75.703125 46.972656 -73.347656 45.921875 -70.640625 L 45.921875 -5.296875 L 56.515625 -2.65625 L 56.515625 0 L 7.0625 0 Z M 7.0625 -2.65625 "/></g></g></g><g fill="#dd4646" fill-opacity="1"><g transform="translate(169.979261, 442.862713)"><g><path d="M 49.453125 2.65625 C 42.859375 2.65625 36.941406 1.269531 31.703125 -1.5 C 26.460938 -4.269531 22.367188 -7.890625 19.421875 -12.359375 C 16.484375 -16.835938 15.015625 -21.546875 15.015625 -26.484375 L 15.015625 -83 L 4.421875 -85.640625 L 4.421875 -88.296875 L 27.375 -88.296875 C 37.96875 -88.296875 43.265625 -83 43.265625 -72.40625 L 43.265625 -26.484375 C 43.265625 -19.066406 44.585938 -13.382812 47.234375 -9.4375 C 49.890625 -5.5 52.984375 -3.53125 56.515625 -3.53125 C 60.867188 -3.53125 64.8125 -5.882812 68.34375 -10.59375 C 69.632812 -12.363281 70.988281 -14.71875 72.40625 -17.65625 L 72.40625 -83 L 61.8125 -85.640625 L 61.8125 -88.296875 L 111.25 -88.296875 L 111.25 -85.640625 L 100.65625 -83 L 100.65625 0.890625 L 98.890625 0.890625 C 90.296875 0.890625 83.765625 -1.46875 79.296875 -6.1875 C 77.285156 -8.300781 75.867188 -10.65625 75.046875 -13.25 C 73.398438 -10.300781 71.457031 -7.648438 69.21875 -5.296875 C 63.925781 0.00390625 57.335938 2.65625 49.453125 2.65625 Z M 49.453125 2.65625 "/></g></g></g><g fill="#dd4646" fill-opacity="1"><g transform="translate(284.761514, 442.862713)"><g><path d="M 43.265625 2.65625 C 36.316406 2.65625 30.132812 0.859375 24.71875 -2.734375 C 19.300781 -6.328125 15.003906 -11.625 11.828125 -18.625 C 8.648438 -25.632812 7.0625 -34.144531 7.0625 -44.15625 C 7.0625 -59.21875 10.5625 -70.78125 17.5625 -78.84375 C 24.570312 -86.914062 34.023438 -90.953125 45.921875 -90.953125 C 51.566406 -90.953125 56.507812 -89.769531 60.75 -87.40625 C 62.507812 -86.582031 64.332031 -85.40625 66.21875 -83.875 L 66.21875 -118.3125 L 55.625 -120.96875 L 55.625 -123.609375 L 78.578125 -123.609375 C 89.179688 -123.609375 94.484375 -118.3125 94.484375 -107.71875 L 94.484375 -5.296875 L 105.078125 -2.65625 L 105.078125 0 L 89.1875 0 C 82.113281 0 76.632812 -2.175781 72.75 -6.53125 C 71.101562 -8.300781 69.8125 -10.539062 68.875 -13.25 C 67.34375 -10.300781 65.398438 -7.648438 63.046875 -5.296875 C 57.742188 0.00390625 51.148438 2.65625 43.265625 2.65625 Z M 50.328125 -3.53125 C 54.679688 -3.53125 58.625 -5.882812 62.15625 -10.59375 C 63.457031 -12.363281 64.8125 -14.71875 66.21875 -17.65625 L 66.21875 -78.578125 C 64.925781 -79.878906 63.570312 -81.054688 62.15625 -82.109375 C 58.976562 -84.460938 55.921875 -85.640625 52.984375 -85.640625 C 47.921875 -85.640625 44.003906 -82.695312 41.234375 -76.8125 C 38.460938 -70.925781 37.078125 -60.039062 37.078125 -44.15625 C 37.078125 -28.96875 38.34375 -18.398438 40.875 -12.453125 C 43.40625 -6.503906 46.554688 -3.53125 50.328125 -3.53125 Z M 50.328125 -3.53125 "/></g></g></g><g fill="#dd4646" fill-opacity="1"><g transform="translate(394.246128, 442.862713)"><g><path d="M 48.5625 2.65625 C 41.257812 2.65625 34.726562 1.0625 28.96875 -2.125 C 26.132812 -3.65625 23.835938 -5.300781 22.078125 -7.0625 C 20.191406 -4.46875 18.128906 -2.46875 15.890625 -1.0625 C 14.828125 -0.351562 13.648438 0.296875 12.359375 0.890625 L 7.953125 0.890625 L 7.953125 -29.140625 L 15.015625 -29.140625 C 16.546875 -24.191406 18.78125 -19.597656 21.71875 -15.359375 C 27.957031 -6.296875 35.726562 -1.765625 45.03125 -1.765625 C 49.976562 -1.765625 53.71875 -2.96875 56.25 -5.375 C 58.78125 -7.789062 60.046875 -11.296875 60.046875 -15.890625 C 60.046875 -19.773438 58.304688 -23.039062 54.828125 -25.6875 C 51.359375 -28.34375 45.914062 -31.613281 38.5 -35.5 C 32.144531 -38.675781 26.992188 -41.53125 23.046875 -44.0625 C 19.097656 -46.59375 15.738281 -49.769531 12.96875 -53.59375 C 10.207031 -57.414062 8.828125 -61.921875 8.828125 -67.109375 C 8.828125 -74.171875 11.859375 -79.910156 17.921875 -84.328125 C 23.984375 -88.742188 33.316406 -90.953125 45.921875 -90.953125 C 52.160156 -90.953125 57.925781 -89.300781 63.21875 -86 C 65.8125 -84.46875 68.050781 -82.878906 69.9375 -81.234375 C 71.46875 -83.347656 73.523438 -85.347656 76.109375 -87.234375 C 78.109375 -88.410156 79.285156 -89.0625 79.640625 -89.1875 L 84.0625 -89.1875 L 84.0625 -59.15625 L 77 -59.15625 C 75.226562 -64.21875 73.046875 -68.75 70.453125 -72.75 C 64.566406 -81.9375 57.566406 -86.53125 49.453125 -86.53125 C 46.265625 -86.53125 43.550781 -85.351562 41.3125 -83 C 39.082031 -80.644531 37.96875 -77.703125 37.96875 -74.171875 C 37.96875 -69.691406 39.847656 -65.953125 43.609375 -62.953125 C 47.378906 -59.953125 53.09375 -56.507812 60.75 -52.625 C 66.988281 -49.445312 71.960938 -46.648438 75.671875 -44.234375 C 79.378906 -41.816406 82.554688 -38.84375 85.203125 -35.3125 C 87.859375 -31.78125 89.1875 -27.660156 89.1875 -22.953125 C 89.1875 -5.878906 75.644531 2.65625 48.5625 2.65625 Z M 48.5625 2.65625 "/></g></g></g><g fill="#dd4646" fill-opacity="1"><g transform="translate(489.603674, 442.862713)"><g><path d="M 53.859375 2.65625 C 39.265625 2.65625 27.816406 -1.492188 19.515625 -9.796875 C 11.210938 -18.097656 7.0625 -29.550781 7.0625 -44.15625 C 7.0625 -58.75 11.210938 -70.195312 19.515625 -78.5 C 27.816406 -86.800781 39.265625 -90.953125 53.859375 -90.953125 C 68.460938 -90.953125 79.910156 -86.800781 88.203125 -78.5 C 96.503906 -70.195312 100.65625 -58.75 100.65625 -44.15625 C 100.65625 -29.550781 96.503906 -18.097656 88.203125 -9.796875 C 79.910156 -1.492188 68.460938 2.65625 53.859375 2.65625 Z M 53.859375 -0.890625 C 58.566406 -0.890625 62.539062 -4.179688 65.78125 -10.765625 C 69.019531 -17.359375 70.640625 -28.488281 70.640625 -44.15625 C 70.640625 -59.8125 69.019531 -70.929688 65.78125 -77.515625 C 62.539062 -84.109375 58.566406 -87.40625 53.859375 -87.40625 C 49.148438 -87.40625 45.175781 -84.109375 41.9375 -77.515625 C 38.695312 -70.929688 37.078125 -59.8125 37.078125 -44.15625 C 37.078125 -28.488281 38.695312 -17.359375 41.9375 -10.765625 C 45.175781 -4.179688 49.148438 -0.890625 53.859375 -0.890625 Z M 53.859375 -0.890625 "/></g></g></g><g fill="#dd4646" fill-opacity="1"><g transform="translate(597.322393, 442.862713)"><g><path d="M 7.0625 -2.65625 L 17.65625 -5.296875 L 17.65625 -83 L 7.0625 -85.640625 L 7.0625 -88.296875 L 22.953125 -88.296875 C 29.898438 -88.296875 35.375 -86.0625 39.375 -81.59375 C 40.90625 -79.820312 42.203125 -77.640625 43.265625 -75.046875 C 44.910156 -78.109375 46.851562 -80.757812 49.09375 -83 C 54.394531 -88.300781 60.988281 -90.953125 68.875 -90.953125 C 75.46875 -90.953125 81.382812 -89.566406 86.625 -86.796875 C 91.863281 -84.023438 95.953125 -80.398438 98.890625 -75.921875 C 101.835938 -71.453125 103.3125 -66.75 103.3125 -61.8125 L 103.3125 -5.296875 L 113.90625 -2.65625 L 113.90625 0 L 90.953125 0 C 80.347656 0 75.046875 -5.296875 75.046875 -15.890625 L 75.046875 -61.8125 C 75.046875 -69.226562 73.722656 -74.90625 71.078125 -78.84375 C 68.429688 -82.789062 65.34375 -84.765625 61.8125 -84.765625 C 57.332031 -84.765625 53.328125 -82.410156 49.796875 -77.703125 C 48.265625 -75.703125 46.972656 -73.347656 45.921875 -70.640625 L 45.921875 -5.296875 L 56.515625 -2.65625 L 56.515625 0 L 7.0625 0 Z M 7.0625 -2.65625 "/></g></g></g><g clip-path="url(#4ec5a4da57)"><path fill="#dd4646" d="M 687.105469 366.363281 C 686.902344 366.566406 686.765625 366.835938 686.765625 367.175781 L 686.695312 373.945312 L 689.011719 373.945312 L 689.078125 370.019531 C 693.570312 375.027344 699.964844 377.734375 706.5 377.734375 C 709.902344 377.734375 713.304688 376.992188 716.503906 375.5 C 726.167969 370.828125 731.476562 359.929688 729.023438 349.503906 C 728.890625 348.894531 728.277344 348.488281 727.664062 348.625 C 727.050781 348.757812 726.644531 349.367188 726.78125 349.976562 C 728.890625 359.386719 724.125 369.273438 715.414062 373.46875 C 706.976562 377.53125 696.632812 375.367188 690.574219 368.324219 L 694.792969 368.394531 L 694.792969 366.089844 L 687.921875 366.023438 C 687.648438 366.023438 687.308594 366.089844 687.105469 366.363281 Z M 687.105469 366.363281 " fill-opacity="1" fill-rule="nonzero"/></g><path fill="#dd4646" d="M 683.769531 359.996094 C 683.90625 360.539062 684.382812 360.878906 684.859375 360.878906 C 684.925781 360.878906 685.0625 360.878906 685.132812 360.878906 C 685.742188 360.742188 686.152344 360.132812 686.015625 359.523438 C 683.769531 350.113281 688.535156 340.296875 697.246094 336.097656 C 705.683594 332.039062 715.890625 334.203125 722.015625 341.109375 L 716.84375 341.109375 L 716.84375 343.410156 L 723.71875 343.410156 C 724.328125 343.410156 724.875 342.871094 724.875 342.261719 L 724.875 335.421875 L 722.558594 335.421875 L 722.558594 338.402344 C 715.6875 331.632812 705.070312 329.734375 696.222656 334 C 686.558594 338.605469 681.320312 349.570312 683.769531 359.996094 Z M 683.769531 359.996094 " fill-opacity="1" fill-rule="nonzero"/><path fill="#dd4646" d="M 706.089844 368.394531 C 713.507812 368.394531 719.566406 362.367188 719.566406 354.988281 C 719.566406 347.609375 713.507812 341.582031 706.089844 341.582031 C 698.671875 341.582031 692.617188 347.609375 692.617188 354.988281 C 692.617188 362.367188 698.671875 368.394531 706.089844 368.394531 Z M 708.269531 356.476562 L 705.003906 355.800781 L 703.4375 355.460938 L 703.164062 355.394531 L 703.027344 355.328125 C 701.464844 354.515625 700.648438 353.5 700.648438 352.347656 L 700.648438 352.210938 C 700.648438 350.179688 702.554688 348.554688 704.933594 348.554688 L 705.207031 348.554688 L 705.207031 347 L 707.519531 347 L 707.519531 348.554688 C 709.835938 348.625 711.738281 350.25 711.738281 352.210938 L 709.425781 352.210938 C 709.425781 351.46875 708.542969 350.859375 707.453125 350.859375 L 704.933594 350.859375 C 703.847656 350.859375 702.960938 351.46875 702.960938 352.210938 L 702.960938 352.347656 C 702.960938 352.414062 703.164062 352.753906 703.980469 353.226562 L 706.5 353.703125 L 708.949219 354.175781 L 709.152344 354.242188 L 709.289062 354.3125 C 711.332031 355.328125 711.738281 356.546875 711.738281 357.359375 L 711.738281 357.492188 C 711.738281 359.523438 709.902344 361.148438 707.589844 361.148438 L 707.589844 362.839844 L 705.273438 362.839844 L 705.273438 361.214844 L 705.003906 361.214844 C 702.621094 361.214844 700.714844 359.589844 700.714844 357.5625 L 703.027344 357.5625 C 703.027344 358.304688 703.914062 358.914062 705.003906 358.914062 L 707.519531 358.914062 C 708.609375 358.914062 709.492188 358.304688 709.492188 357.5625 L 709.492188 357.425781 C 709.289062 357.359375 709.152344 356.953125 708.269531 356.476562 Z M 708.269531 356.476562 " fill-opacity="1" fill-rule="nonzero"/></svg>